<svg width="170" height="32" viewBox="0 0 170 32" fill="none" xmlns="http://www.w3.org/2000/svg">
<path d="M57.7394 7.45C60.3667 7.45 61.9827 8.52087 62.4463 8.86763L64.2068 5.68222C63.2829 4.98871 61.0588 3.71387 57.511 3.71387C51.0167 3.71387 46.7163 8.2591 46.7163 14.1676C46.7163 20.0454 50.9898 24.5941 57.511 24.5941C61.1495 24.5941 63.2829 23.3498 64.2068 22.6529L62.4732 19.4981C61.9525 19.8449 60.3667 20.8579 57.7394 20.8579C53.5264 20.8579 50.8118 18.1927 50.8118 14.1404C50.8118 10.0847 53.5533 7.45 57.7394 7.45Z" fill="#00BC8F"/>
<path d="M74.9749 12.2891C73.9938 11.3916 72.6063 10.7559 70.8458 10.7559C67.1804 10.7559 64.3784 13.7373 64.3784 17.6774C64.3784 21.6175 67.093 24.5989 70.7585 24.5989C72.7205 24.5989 74.1652 23.7287 75.1462 22.515L75.2907 24.3406H78.6403V11.0142H75.1462L74.9749 12.2891ZM71.595 21.1484C69.6598 21.1484 68.1883 19.6424 68.1883 17.674C68.1883 15.675 69.6598 14.1996 71.595 14.1996C73.6747 14.1996 75.0017 15.6479 75.0017 17.674C75.032 19.673 73.6747 21.1484 71.595 21.1484Z" fill="#00BC8F"/>
<path d="M86.2864 13.7951C87.758 13.7951 89.1724 14.3152 90.355 15.0699L91.8568 12.2619C90.6742 11.4494 88.6516 10.7559 86.3704 10.7559C83.0208 10.7559 80.8269 12.4081 80.8269 14.9543C80.8269 17.589 83.34 18.5443 85.591 19.095C87.3515 19.4996 87.9864 19.8191 87.9864 20.5127C87.9864 21.2062 87.4086 21.5563 86.3133 21.5563C84.4957 21.5563 82.8192 20.8628 81.8113 20.1081L80.2524 22.9162C81.6366 23.8714 83.6289 24.5955 85.9404 24.5955C89.8074 24.5955 91.8568 22.8278 91.8568 20.2815C91.8568 17.4734 89.5756 16.6609 87.4119 16.1408C85.4196 15.6784 84.7275 15.4473 84.7275 14.781C84.7275 14.1112 85.3356 13.7951 86.2864 13.7951Z" fill="#00BC8F"/>
<path d="M109.089 24.5991C108.229 24.5991 107.513 23.9804 107.358 23.1645C107.358 23.1577 107.355 23.1509 107.355 23.1441C107.348 23.1135 107.345 23.0829 107.342 23.0523C107.338 23.0047 107.335 22.9605 107.331 22.9367V22.675C107.331 22.675 107.331 22.675 107.331 22.6716V16.9807C107.331 13.2445 104.879 10.756 101.355 10.756C99.621 10.756 98.351 11.3646 97.5447 12.2043V3.65771H93.7617V24.334H97.5447V17.3852C97.5447 15.6174 98.7005 14.1692 100.605 14.1692C102.339 14.1692 103.548 15.5018 103.548 17.5008V22.8653H103.552C103.579 25.9148 106.048 28.3795 109.095 28.3795C109.099 28.3795 109.102 28.3795 109.105 28.3795V24.5991C109.099 24.5991 109.092 24.5991 109.089 24.5991Z" fill="#00BC8F"/>
<path d="M125.978 10.7529C121.993 10.7529 118.792 13.7344 118.792 17.6745C118.792 21.6146 121.997 24.596 125.978 24.596C129.962 24.596 133.164 21.6146 133.164 17.6745C133.164 13.7344 129.962 10.7529 125.978 10.7529ZM125.978 21.1488C124.073 21.1488 122.601 19.6156 122.601 17.6745C122.601 15.7639 124.073 14.2001 125.978 14.2001C127.913 14.2001 129.354 15.7639 129.354 17.6745C129.358 19.6156 127.913 21.1488 125.978 21.1488Z" fill="#002059"/>
<path d="M142.636 10.7529C140.355 10.7529 138.708 11.9972 138.248 13.6188L138.104 11.0113H134.956V24.3308H138.739V17.6473C138.739 15.7639 140.039 14.3735 142.145 14.3735C142.75 14.3735 143.099 14.4891 143.472 14.6352L143.792 10.8719C143.442 10.7835 143.039 10.7529 142.636 10.7529Z" fill="#002059"/>
<path d="M151.499 14.2001C152.883 14.2001 153.807 14.6931 154.415 15.0976L155.943 12.2318C155.164 11.681 153.692 10.7563 151.065 10.7563C146.909 10.7563 143.761 13.7956 143.761 17.6779C143.761 21.5874 146.822 24.5994 151.065 24.5994C153.692 24.5994 155.107 23.6136 155.917 23.0934L154.415 20.2548C153.81 20.6593 152.913 21.1523 151.441 21.1523C149.16 21.1523 147.632 19.704 147.632 17.6779C147.632 15.6517 149.187 14.2001 151.499 14.2001Z" fill="#002059"/>
<path d="M170 17.7051C170 13.7072 167.403 10.7563 163.389 10.7563C159.32 10.7563 156.461 13.7956 156.461 17.6779C156.461 21.5874 159.548 24.5994 163.765 24.5994C166.795 24.5994 168.442 23.498 169.251 22.7739L167.692 20.0508C167.115 20.5131 166.103 21.4106 164.171 21.4106C162.092 21.4106 160.62 20.2514 160.187 18.7182H169.943C169.943 18.7182 170 18.1946 170 17.7051ZM160.214 16.2841C160.647 14.6319 161.887 13.765 163.533 13.765C165.035 13.765 166.217 14.778 166.392 16.2841H160.214Z" fill="#002059"/>
<path d="M114.636 9.65479C114.636 7.65583 115.906 6.87393 117.206 6.87393C118.1 6.87393 118.563 7.16289 118.822 7.30908L120.267 4.47043C119.632 4.03528 118.533 3.42676 116.773 3.42676C113.02 3.42676 110.856 5.74187 110.856 9.45081V11.0146H109.015V14.2H110.856V22.8418H110.853C110.846 23.8072 110.07 24.5891 109.109 24.5993V28.3763C112.156 28.3695 114.629 25.8946 114.643 22.8384H114.639V14.2H118.624V11.0146H114.639V9.65479H114.636Z" fill="#002059"/>
<path d="M31.369 11.1812C31.2414 11.4838 30.9524 11.681 30.6299 11.6844C30.6265 11.6844 30.6265 11.6844 30.6265 11.6844H21.0178L12.6791 20.1221H10.4147L20.1242 10.2973C20.2753 10.1477 20.4803 10.0628 20.6852 10.0628H28.6947L20.3526 1.6216H2.73779L11.3083 10.2973C11.6208 10.6135 11.6208 11.1302 11.3117 11.4464L2.73779 20.1221H10.4113C10.0888 20.1221 9.79985 20.3193 9.67218 20.6252C9.54787 20.9278 9.61842 21.2746 9.84688 21.5057L10.0787 21.7403H0.799255C0.476726 21.7403 0.184433 21.5431 0.0601247 21.2372C-0.0641836 20.9312 0.00636973 20.5844 0.238188 20.3533L9.61171 10.8685L0.238188 1.38363C0.00636973 1.15586 -0.0641836 0.8091 0.0601247 0.503138C0.187793 0.197176 0.476726 0 0.799255 0H20.6819C20.8902 0 21.0951 0.0849895 21.2463 0.234571L30.9625 10.0628L31.1943 10.2973C31.4228 10.5353 31.4933 10.8787 31.369 11.1812Z" fill="#00BC8F"/>
<path d="M40.9844 31.2997C40.8567 31.6056 40.5644 31.8028 40.2419 31.8028H20.3526C20.1443 31.8028 19.9393 31.7178 19.7915 31.5682L10.082 21.7435L9.85018 21.5089C9.62172 21.2777 9.55117 20.931 9.67548 20.6284C9.80315 20.3224 10.0921 20.1253 10.4146 20.1253H20.0233L28.362 11.6841H30.6265C30.6298 11.6841 30.6298 11.6841 30.6298 11.6841L20.9203 21.5089C20.7591 21.6653 20.5609 21.7435 20.3526 21.7435H12.3464L20.6885 30.1846H38.3067L29.7328 21.5089C29.5816 21.3559 29.501 21.1519 29.501 20.9344C29.501 20.7168 29.585 20.5128 29.7328 20.3598L38.3067 11.6841H30.6298C30.9523 11.6807 31.2413 11.4835 31.369 11.181C31.4899 10.8784 31.4227 10.535 31.1942 10.2971L30.9624 10.0625H40.2385C40.561 10.0625 40.8533 10.2597 40.981 10.5622C41.1053 10.8682 41.0348 11.215 40.8063 11.4495L31.4328 20.9344L40.8063 30.4192C41.0348 30.6504 41.1053 30.9971 40.9844 31.2997Z" fill="#002059"/>
</svg>
