<svg width="42" height="32" viewBox="0 0 42 32" fill="none" xmlns="http://www.w3.org/2000/svg">
<path d="M31.3695 11.1812C31.2418 11.4838 30.9529 11.681 30.6304 11.6844C30.627 11.6844 30.627 11.6844 30.627 11.6844H21.0183L12.6796 20.1221H10.4152L20.1246 10.2973C20.2758 10.1477 20.4808 10.0628 20.6857 10.0628H28.6952L20.3531 1.6216H2.73828L11.3088 10.2973C11.6213 10.6135 11.6213 11.1302 11.3122 11.4464L2.73828 20.1221H10.4118C10.0893 20.1221 9.80034 20.3193 9.67267 20.6252C9.54836 20.9278 9.61891 21.2746 9.84737 21.5057L10.0792 21.7403H0.799743C0.477214 21.7403 0.184921 21.5431 0.060613 21.2372C-0.0636953 20.9312 0.00685802 20.5844 0.238676 20.3533L9.61219 10.8685L0.238676 1.38363C0.00685802 1.15586 -0.0636953 0.8091 0.060613 0.503138C0.188281 0.197176 0.477214 0 0.799743 0H20.6824C20.8907 0 21.0956 0.0849895 21.2468 0.234571L30.963 10.0628L31.1948 10.2973C31.4233 10.5353 31.4938 10.8787 31.3695 11.1812Z" fill="#00BC8F"/>
<path d="M40.985 31.2999C40.8573 31.6058 40.565 31.803 40.2425 31.803H20.3532C20.1449 31.803 19.9399 31.718 19.7921 31.5684L10.0826 21.7436L9.85079 21.5091C9.62233 21.2779 9.55178 20.9311 9.67609 20.6286C9.80376 20.3226 10.0927 20.1254 10.4152 20.1254H20.0239L28.3626 11.6843H30.6271C30.6304 11.6843 30.6304 11.6843 30.6304 11.6843L20.9209 21.5091C20.7597 21.6654 20.5615 21.7436 20.3532 21.7436H12.347L20.6891 30.1848H38.3073L29.7334 21.5091C29.5822 21.3561 29.5016 21.1521 29.5016 20.9345C29.5016 20.717 29.5856 20.513 29.7334 20.36L38.3073 11.6843H30.6304C30.953 11.6809 31.2419 11.4837 31.3696 11.1811C31.4905 10.8786 31.4233 10.5352 31.1949 10.2973L30.963 10.0627H40.2391C40.5617 10.0627 40.8539 10.2599 40.9816 10.5624C41.1059 10.8684 41.0354 11.2151 40.8069 11.4497L31.4334 20.9345L40.8069 30.4194C41.0354 30.6505 41.1059 30.9973 40.985 31.2999Z" fill="#002059"/>
</svg>
