<svg width="32" height="32" viewBox="0 0 32 32" fill="none" xmlns="http://www.w3.org/2000/svg">
<circle cx="16" cy="16" r="16" fill="#CCCCCC"/>
<path d="M12.1809 13.3477H9.17316V22.3801H12.1809V13.3477Z" fill="white"/>
<path d="M22.0521 14.1723C21.4202 13.4826 20.5846 13.1377 19.5456 13.1377C19.1628 13.1377 18.8148 13.1848 18.5018 13.279C18.1889 13.3732 17.9247 13.5053 17.7089 13.6755C17.4932 13.8457 17.3215 14.0036 17.194 14.1494C17.0727 14.2878 16.9542 14.4491 16.8385 14.6316V13.3472H13.8397L13.8489 13.7847C13.855 14.0765 13.858 14.9757 13.858 16.4826C13.858 17.9896 13.852 19.9553 13.8398 22.3798H16.8385V17.3393C16.8385 17.0295 16.8717 16.7834 16.9387 16.601C17.0664 16.2909 17.2591 16.0314 17.5175 15.8218C17.7759 15.612 18.0963 15.5072 18.4792 15.5072C19.0016 15.5072 19.3861 15.688 19.6322 16.0495C19.8783 16.411 20.0013 16.9108 20.0013 17.5489V22.3795H23V17.2027C22.9998 15.8719 22.6841 14.8618 22.0521 14.1723Z" fill="white"/>
<path d="M10.6953 9C10.191 9 9.7824 9.14746 9.46938 9.44209C9.1564 9.73678 9 10.1088 9 10.5586C9 11.002 9.1519 11.3728 9.45572 11.6705C9.75945 11.9682 10.1605 12.1171 10.6588 12.1171H10.677C11.1875 12.1171 11.5992 11.9683 11.9121 11.6705C12.225 11.3728 12.3784 11.0022 12.3724 10.5586C12.3663 10.1089 12.2112 9.73678 11.9075 9.44209C11.6038 9.14733 11.1996 9 10.6953 9Z" fill="white"/>
</svg>
